<svg width="1500" height="189" viewBox="0 0 1500 189" fill="none" xmlns="http://www.w3.org/2000/svg">
<path d="M295.535 139.208C295.706 134.396 296.256 129.896 296.759 129.208C297.262 128.521 298.068 127.958 298.55 127.958C299.605 127.958 299.705 129.348 298.72 130.332C298.331 130.721 298.145 134.846 298.305 139.499C298.561 146.883 298.383 147.958 296.911 147.958C295.434 147.958 295.263 146.872 295.535 139.208Z" fill="#2A6F97"/>
<path d="M220.428 147.958C219.321 147.958 219.011 133.708 220.095 132.625C221.366 131.354 227.293 131.966 228.857 133.529C230.647 135.32 231.147 147.958 229.428 147.958C228.873 147.958 228.428 145.308 228.428 142.008C228.428 135.675 227.052 133.721 223.286 134.705C221.72 135.115 221.428 136.195 221.428 141.575C221.428 145.164 220.99 147.958 220.428 147.958Z" fill="#2A6F97"/>
<path d="M234.487 134.958C232.637 134.958 231.046 133.674 231.871 132.847C232.832 131.886 241.839 132.69 242.198 133.769C242.42 134.434 241.677 134.958 240.511 134.958C238.614 134.958 238.428 135.538 238.428 141.458C238.428 145.125 237.992 147.958 237.428 147.958C236.864 147.958 236.428 145.125 236.428 141.458C236.428 135.691 236.209 134.958 234.487 134.958Z" fill="#2A6F97"/>
<path d="M258.928 147.458L258.634 139.622C258.437 134.367 258.685 131.999 259.384 132.431C259.958 132.786 260.428 135.974 260.428 139.517V145.958H263.369C264.987 145.958 266.605 146.436 266.966 147.02C267.401 147.724 266.156 147.977 263.275 147.77L258.928 147.458Z" fill="#2A6F97"/>
<path d="M283.393 146.415C281.494 144.128 281.901 136.198 284.038 133.837C285.238 132.51 286.829 131.959 288.877 132.159C292.849 132.548 292.432 134.317 288.217 134.958C285.483 135.374 284.873 135.942 284.6 138.329C284.03 143.312 285.191 145.958 287.947 145.958C290.037 145.958 290.428 145.485 290.428 142.958C290.428 141.308 290.878 139.958 291.428 139.958C291.978 139.958 292.428 141.758 292.428 143.958C292.428 147.937 292.408 147.958 288.55 147.958C286.276 147.958 284.144 147.32 283.393 146.415Z" fill="#2A6F97"/>
<path d="M321.193 146.611C319.97 144.691 320.334 134.452 321.673 133.113C323.113 131.673 329.06 131.967 328.659 133.458C328.51 134.008 327.61 134.504 326.659 134.56C322.867 134.783 322.428 135.032 322.428 136.958C322.428 138.577 323.095 138.958 325.928 138.958C327.853 138.958 329.428 139.408 329.428 139.958C329.428 140.508 327.853 140.958 325.928 140.958C322.861 140.958 322.428 141.268 322.428 143.458C322.428 145.66 322.856 145.958 326.011 145.958C328.442 145.958 329.456 146.36 329.162 147.208C328.631 148.744 322.248 148.266 321.193 146.611Z" fill="#2A6F97"/>
<path d="M333.382 147.958C332.316 147.958 332.048 133.672 333.095 132.625C334.366 131.354 340.293 131.966 341.857 133.529C343.647 135.32 344.147 147.958 342.428 147.958C341.878 147.958 341.421 145.595 341.413 142.708C341.395 136.508 340.684 135.102 337.384 134.733C335.016 134.468 334.917 134.7 334.632 141.208C334.47 144.921 333.907 147.958 333.382 147.958Z" fill="#2A6F97"/>
<path d="M351.428 140.315C351.428 136.03 351.834 134.787 353.651 133.515C356.092 131.805 359.994 131.447 360.863 132.853C361.486 133.861 359.188 134.958 356.453 134.958C354.405 134.958 353.428 136.858 353.428 140.84C353.428 143.981 355.051 145.958 357.628 145.958C358.961 145.958 359.428 145.18 359.428 142.958C359.428 141.308 359.878 139.958 360.428 139.958C360.978 139.958 361.428 141.758 361.428 143.958C361.428 147.923 361.395 147.958 357.628 147.958C352.566 147.958 351.428 146.556 351.428 140.315Z" fill="#2A6F97"/>
<path d="M365.428 140.425C365.428 135.533 365.84 132.951 366.678 132.597C368.693 131.746 373.928 132.368 373.928 133.458C373.928 134.008 372.466 134.599 370.678 134.771C368.238 135.007 367.428 135.567 367.428 137.021C367.428 138.568 368.133 138.958 370.928 138.958C372.853 138.958 374.428 139.408 374.428 139.958C374.428 140.508 372.853 140.958 370.928 140.958C367.861 140.958 367.428 141.268 367.428 143.458C367.428 145.648 367.861 145.958 370.928 145.958C372.853 145.958 374.428 146.356 374.428 146.841C374.428 148.09 371.097 148.808 368.028 148.222C365.511 147.741 365.428 147.492 365.428 140.425Z" fill="#2A6F97"/>
<path d="M377.428 147.958C376.321 147.958 376.011 133.708 377.095 132.625C378.254 131.465 383.971 131.903 385.878 133.298C388.247 135.03 389.066 147.958 386.806 147.958C385.779 147.958 385.428 146.33 385.428 141.575C385.428 135.934 385.184 135.127 383.332 134.643C380.743 133.966 378.347 134.803 378.529 136.322C378.997 140.225 378.265 147.958 377.428 147.958Z" fill="#2A6F97"/>
<path d="M390.428 139.948C390.428 136.806 391 134.529 392.053 133.475C393.04 132.489 394.907 131.969 396.803 132.154C400.049 132.47 400.711 134.35 397.665 134.602C396.71 134.681 395.366 134.793 394.678 134.852C393.991 134.91 393.428 135.858 393.428 136.958C393.428 138.577 394.095 138.958 396.928 138.958C398.853 138.958 400.428 139.408 400.428 139.958C400.428 140.508 398.853 140.958 396.928 140.958C393.861 140.958 393.428 141.268 393.428 143.458C393.428 145.558 393.899 145.958 396.369 145.958C397.987 145.958 399.588 146.408 399.928 146.958C400.305 147.567 398.807 147.958 396.094 147.958C390.965 147.958 390.428 147.198 390.428 139.948Z" fill="#2A6F97"/>
<path d="M449.246 135.458C450.751 138.761 451.743 138.611 453.156 134.867C453.809 133.139 454.787 132.062 455.376 132.426C456.929 133.386 456.627 135.146 454.428 137.958C453.295 139.407 452.463 142.034 452.45 144.208C452.434 146.865 451.991 147.958 450.928 147.958C449.862 147.958 449.427 146.873 449.424 144.208C449.422 142.146 448.522 138.985 447.424 137.184C445.064 133.312 445.009 132.958 446.767 132.958C447.504 132.958 448.62 134.083 449.246 135.458Z" fill="#2A6F97"/>
<path d="M492.678 134.333C490.498 134.115 490.298 133.978 490.851 133.082C491.484 132.058 499.96 132.156 501.003 133.2C501.394 133.591 500.862 134.226 499.821 134.612C496.995 135.658 496.46 136.939 496.443 142.708C496.421 150.381 494.571 149.131 494.224 141.208C494.027 136.719 493.509 134.416 492.678 134.333Z" fill="#2A6F97"/>
<path d="M544.428 140.541C544.428 135.544 544.836 132.96 545.678 132.62C548.098 131.644 552.066 131.973 553.881 133.3C555.302 134.339 555.74 136.067 555.822 140.95C555.893 145.179 555.516 147.401 554.678 147.691C553.761 148.009 553.428 146.372 553.428 141.541V134.958H550.428H547.428V141.458C547.428 146.569 547.107 147.958 545.928 147.958C544.729 147.958 544.428 146.467 544.428 140.541Z" fill="#2A6F97"/>
<path d="M558.428 139.824C558.428 136.033 558.883 134.75 560.678 133.482C563.066 131.795 567.503 131.779 567.472 133.458C567.462 134.008 566.472 134.513 565.271 134.58C559.215 134.917 558.859 145.958 564.904 145.958C568.029 145.958 569.264 147.921 566.237 148.076C560.11 148.391 558.428 146.613 558.428 139.824Z" fill="#2A6F97"/>
<path d="M570.428 140.625C570.428 136.591 570.735 132.985 571.11 132.61C572.488 131.232 573.398 134.63 573.413 141.208C573.425 146.548 573.115 147.958 571.928 147.958C570.731 147.958 570.428 146.477 570.428 140.625Z" fill="#2A6F97"/>
<path d="M430.193 146.608C429.273 145.168 429.193 134.527 430.095 133.625C431.807 131.912 432.428 133.463 432.428 139.458V145.958H435.511C437.534 145.958 438.451 146.388 438.177 147.208C437.664 148.744 431.25 148.262 430.193 146.608Z" fill="#2A6F97"/>
<path fill-rule="evenodd" clip-rule="evenodd" d="M180.624 132.671C176.467 133.465 174.784 143.16 178.257 146.303C180.817 148.62 186.09 148.459 187.393 146.024C189.166 142.71 188.643 136.173 186.428 133.958C185.328 132.858 184.09 132.019 183.678 132.094C183.266 132.169 181.891 132.429 180.624 132.671ZM181.064 145.649C184.741 147.059 187.333 142.698 185.992 137.356C185.573 135.689 184.684 134.958 183.076 134.958C179.874 134.958 179.428 135.654 179.428 140.656C179.428 143.774 179.895 145.2 181.064 145.649Z" fill="#2A6F97"/>
<path fill-rule="evenodd" clip-rule="evenodd" d="M191.428 139.826C191.428 147.558 191.539 147.964 193.678 148.073C200.336 148.414 202.347 146.644 202.396 140.399C202.438 135.004 200.728 132.942 195.643 132.26L191.428 131.695V139.826ZM199.453 143.393C200.871 139.662 200.67 138.2 198.428 135.958C194.716 132.246 193.428 133.448 193.428 140.625C193.428 145.661 193.569 145.958 195.953 145.958C197.743 145.958 198.761 145.212 199.453 143.393Z" fill="#2A6F97"/>
<path fill-rule="evenodd" clip-rule="evenodd" d="M206.428 133.958C204.164 136.222 203.781 141.444 205.589 145.411C206.523 147.461 207.459 147.958 210.389 147.958C215.285 147.958 216.428 146.512 216.428 140.315C216.428 136.03 216.022 134.787 214.205 133.515C211.214 131.42 208.831 131.555 206.428 133.958ZM210.203 145.958C212.951 145.958 214.428 143.941 214.428 140.187C214.428 135.998 212.606 133.978 209.775 135.025C205.708 136.53 206.078 145.958 210.203 145.958Z" fill="#2A6F97"/>
<path fill-rule="evenodd" clip-rule="evenodd" d="M247.121 132.658C243.78 133.524 242.382 140.567 244.589 145.411C245.523 147.461 246.459 147.958 249.389 147.958C254.174 147.958 255.428 146.51 255.428 140.981C255.428 133.779 252.832 131.178 247.121 132.658ZM252.971 143.642C253.308 142.299 253.437 139.908 253.256 138.329C252.994 136.039 252.371 135.394 250.172 135.141C246.925 134.767 246.163 136.149 246.611 141.603C246.887 144.958 247.28 145.499 249.643 145.771C251.815 146.022 252.481 145.596 252.971 143.642Z" fill="#2A6F97"/>
<path fill-rule="evenodd" clip-rule="evenodd" d="M270.678 132.989C268.672 133.795 268.428 134.59 268.428 140.319C268.428 147.241 268.98 147.958 274.31 147.958C278.247 147.958 279.428 146.217 279.428 140.413C279.428 133.144 276.491 130.652 270.678 132.989ZM276.55 144.795C277.543 143.228 277.689 138.801 276.821 136.54C276.071 134.586 271.562 134.446 270.83 136.353C270.536 137.12 270.437 139.482 270.611 141.603C270.873 144.794 271.339 145.516 273.315 145.795C274.628 145.981 276.083 145.531 276.55 144.795Z" fill="#2A6F97"/>
<path fill-rule="evenodd" clip-rule="evenodd" d="M303.178 133.038C301.777 133.854 301.428 135.443 301.428 141.008C301.428 144.975 301.857 147.958 302.428 147.958C302.978 147.958 303.428 146.608 303.428 144.958C303.428 142.291 303.761 141.958 306.428 141.958C309.095 141.958 309.428 142.291 309.428 144.958C309.428 146.958 309.928 147.958 310.928 147.958C312.119 147.958 312.428 146.511 312.428 140.933C312.428 134.313 312.28 133.852 309.863 132.933C306.678 131.722 305.403 131.742 303.178 133.038ZM306.428 139.458C308.259 139.458 309.013 138.856 309.248 137.208C309.521 135.285 309.111 134.958 306.428 134.958C303.745 134.958 303.335 135.285 303.608 137.208C303.843 138.856 304.597 139.458 306.428 139.458Z" fill="#2A6F97"/>
<path fill-rule="evenodd" clip-rule="evenodd" d="M403.095 132.625C402.011 133.708 402.321 147.958 403.428 147.958C403.978 147.958 404.428 146.608 404.428 144.958C404.428 141.036 406.253 141.119 409.601 145.193C412.536 148.764 414.6 148.396 412.198 144.73C410.872 142.706 410.869 142.179 412.175 140.213C414.112 137.295 413.089 133.368 410.189 132.591C407.182 131.786 403.918 131.801 403.095 132.625ZM407.428 139.458C409.259 139.458 410.013 138.856 410.248 137.208C410.521 135.285 410.111 134.958 407.428 134.958C404.745 134.958 404.335 135.285 404.608 137.208C404.843 138.856 405.597 139.458 407.428 139.458Z" fill="#2A6F97"/>
<path fill-rule="evenodd" clip-rule="evenodd" d="M418.178 132.647C417.216 132.899 416.394 133.859 416.351 134.781C416.309 135.703 416.101 139.046 415.888 142.208C415.581 146.765 415.804 147.958 416.964 147.958C417.924 147.958 418.428 146.925 418.428 144.958C418.428 142.291 418.761 141.958 421.428 141.958C424.113 141.958 424.428 142.282 424.428 145.041C424.428 146.957 424.873 147.976 425.602 147.733C427.16 147.214 426.711 133.759 425.1 132.734C423.848 131.938 421.029 131.902 418.178 132.647ZM421.428 139.958C423.961 139.958 424.428 139.569 424.428 137.458C424.428 135.347 423.961 134.958 421.428 134.958C418.895 134.958 418.428 135.347 418.428 137.458C418.428 139.569 418.895 139.958 421.428 139.958Z" fill="#2A6F97"/>
<path fill-rule="evenodd" clip-rule="evenodd" d="M465.869 133.377C463.516 135.098 463.138 143.699 465.3 146.304C466.894 148.225 472.477 148.509 474.228 146.758C476.186 144.8 475.743 135.553 473.599 133.613C471.356 131.583 468.445 131.494 465.869 133.377ZM472.55 144.795C473.943 142.597 473.54 137.213 471.857 135.529C470.914 134.587 470.504 134.12 470.06 134.085C469.615 134.05 469.135 134.451 468.051 135.244C466.727 136.213 466.371 137.633 466.61 140.994C466.883 144.828 467.265 145.506 469.315 145.795C470.628 145.981 472.083 145.531 472.55 144.795Z" fill="#2A6F97"/>
<path fill-rule="evenodd" clip-rule="evenodd" d="M479.095 132.625C478.011 133.708 478.321 147.958 479.428 147.958C479.978 147.958 480.428 146.608 480.428 144.958C480.428 142.689 480.886 141.958 482.307 141.958C483.451 141.958 484.671 143.13 485.428 144.958C486.111 146.608 487.291 147.958 488.049 147.958C489.797 147.958 489.799 146.848 488.056 144.464C486.893 142.874 486.895 142.085 488.066 139.283C489.326 136.266 489.271 135.801 487.437 133.967C485.51 132.04 480.487 131.232 479.095 132.625ZM484.437 139.455C486.296 138.865 487.331 135.05 485.678 134.881C485.265 134.839 484.171 134.659 483.246 134.48C481.173 134.079 480.428 134.763 480.428 137.066C480.428 139.355 481.931 140.251 484.437 139.455Z" fill="#2A6F97"/>
<path fill-rule="evenodd" clip-rule="evenodd" d="M505.928 132.69C503.078 133.402 502.461 134.788 502.443 140.508C502.425 146.519 503.596 147.958 508.507 147.958C511.656 147.958 512.365 147.524 513.435 144.941C514.982 141.207 514.082 134.91 511.76 133.211C509.982 131.912 509.29 131.85 505.928 132.69ZM508.235 145.769C510.759 145.478 510.928 145.143 510.928 140.458C510.928 135.786 510.753 135.438 508.264 135.15C505.059 134.779 503.901 137.338 504.89 142.606C505.463 145.661 505.866 146.042 508.235 145.769Z" fill="#2A6F97"/>
<path fill-rule="evenodd" clip-rule="evenodd" d="M517.095 132.625C516.728 132.991 516.428 136.591 516.428 140.625V147.958H520.806C526.148 147.958 527.347 146.66 527.576 140.63C527.793 134.886 525.553 131.958 520.94 131.958C519.192 131.958 517.461 132.258 517.095 132.625ZM525.413 139.683C525.425 136.545 524.996 135.744 522.863 134.933C521.452 134.397 520.081 133.958 519.815 133.958C519.55 133.958 519.467 136.771 519.63 140.208C519.898 145.831 520.129 146.423 521.928 146.108C524.606 145.639 525.394 144.187 525.413 139.683Z" fill="#2A6F97"/>
<path fill-rule="evenodd" clip-rule="evenodd" d="M532.651 133.515C530.834 134.787 530.428 136.03 530.428 140.315C530.428 146.523 531.569 147.958 536.507 147.958C539.656 147.958 540.365 147.524 541.435 144.941C542.982 141.207 542.082 134.91 539.76 133.211C537.474 131.54 535.339 131.631 532.651 133.515ZM536.541 145.795C538.694 145.491 538.928 144.967 538.928 140.458C538.928 135.849 538.729 135.435 536.391 135.162C533.076 134.776 532.425 135.553 532.443 139.875C532.463 144.555 533.609 146.21 536.541 145.795Z" fill="#2A6F97"/>
<path fill-rule="evenodd" clip-rule="evenodd" d="M578.678 132.989C576.644 133.807 576.428 134.568 576.428 140.926C576.428 144.947 576.856 147.958 577.428 147.958C577.978 147.958 578.428 146.608 578.428 144.958C578.428 142.291 578.761 141.958 581.428 141.958C584.095 141.958 584.428 142.291 584.428 144.958C584.428 146.874 584.938 147.958 585.839 147.958C586.914 147.958 587.239 146.398 587.206 141.397C587.148 132.629 584.954 130.466 578.678 132.989ZM584.428 137.581C584.428 136.256 583.716 134.899 582.846 134.565C581.976 134.231 581.189 133.994 581.096 134.037C581.004 134.08 580.366 134.343 579.678 134.62C578.991 134.898 578.428 136.116 578.428 137.329C578.428 139.06 579.071 139.582 581.428 139.761C583.994 139.957 584.428 139.642 584.428 137.581Z" fill="#2A6F97"/>
<path d="M416.133 87.9248C412.45 87.9378 412.669 86.6688 416.959 83.1328C420.17 80.4858 424.54 79.3598 426.67 80.6298C428.165 81.5208 418.929 87.9148 416.133 87.9248Z" fill="#013A63"/>
<path d="M432.308 110.435C434.292 98.0868 437.239 82.9768 437.859 81.9738C438.661 80.6768 444.06 80.6028 444.848 81.8778C445.357 82.7028 443.69 93.7778 440.324 111.935C438.348 122.594 438.746 121.935 434.284 121.935C430.386 121.935 430.246 121.825 430.784 119.185C431.092 117.673 431.778 113.735 432.308 110.435Z" fill="#013A63"/>
<path d="M227.755 98.4358C229.735 87.8388 230.283 86.2928 232.44 85.2008C233.784 84.5208 235.895 83.9578 237.133 83.9498C239.041 83.9368 239.383 84.4678 239.383 87.4348C239.383 90.7798 239.541 90.9348 242.946 90.9348C246.364 90.9348 246.497 91.0678 246.196 94.1848C245.904 97.2158 245.606 97.4547 241.771 97.7357L237.659 98.0358L236.521 104.928C234.754 115.629 234.82 115.935 238.883 115.935C242.493 115.935 243.285 117.42 241.776 121.353C240.918 123.588 229.188 123.597 226.954 121.364C224.811 119.221 225.028 113.03 227.755 98.4358Z" fill="#013A63"/>
<path d="M382.075 85.8898C382.519 85.4718 383.783 84.9127 384.883 84.6477C389.743 83.4787 390.383 83.8038 390.383 87.4348C390.383 90.8518 390.478 90.9348 394.383 90.9348C397.869 90.9348 398.381 91.2238 398.368 93.1848C398.344 96.6978 397.168 97.7597 392.915 98.1107L388.974 98.4348L387.74 104.935C385.734 115.502 385.821 115.935 389.946 115.935C393.364 115.935 393.497 116.068 393.196 119.185L392.883 122.435L386.185 122.729C379.934 123.004 379.375 122.852 377.796 120.442C376.268 118.111 376.228 116.965 377.386 108.647C379.074 96.5248 381.071 86.8358 382.075 85.8898Z" fill="#013A63"/>
<path d="M205.152 117.935C205.648 109.645 209.389 93.4938 211.116 92.1848C212.031 91.4908 215.573 90.9348 219.074 90.9348C225.647 90.9348 225.957 91.1908 224.767 95.6288C224.346 97.1988 223.283 97.9108 221.031 98.1288L217.883 98.4348L215.883 109.638C214.783 115.799 213.378 121.345 212.76 121.961C212.143 122.577 210.118 122.935 208.26 122.758C204.926 122.439 204.886 122.378 205.152 117.935Z" fill="#013A63"/>
<path d="M347.947 95.5397C348.727 94.4257 350.382 92.9497 351.624 92.2597C352.867 91.5697 357.166 90.9898 361.178 90.9698C367.617 90.9388 368.762 91.2228 370.928 93.3898C373.818 96.2788 373.923 98.2488 371.834 110.435C369.621 123.349 369.835 122.935 365.375 122.935C363.244 122.935 361.242 122.516 360.925 122.003C360.608 121.49 361.032 117.156 361.866 112.372C364.131 99.3807 363.995 97.9348 360.505 97.9348C358.923 97.9348 357.149 98.5118 356.564 99.2168C355.979 99.9218 354.745 104.984 353.822 110.467C352.899 115.949 351.693 120.998 351.141 121.685C349.774 123.389 343.457 123.291 342.791 121.556C342.01 119.52 346.295 97.8987 347.947 95.5397Z" fill="#013A63"/>
<path d="M450.066 104.736C449.396 98.3017 449.008 92.5598 449.203 91.9758C449.397 91.3918 451.205 91.0388 453.22 91.1918L456.883 91.4698L457.431 102.167C457.946 112.2 458.578 115.073 459.966 113.685C460.287 113.364 462.464 108.452 464.804 102.768L469.06 92.4348L473.221 92.1277C475.51 91.9577 477.383 92.0078 477.383 92.2368C477.383 92.4658 474.941 98.2287 471.955 105.044C465.805 119.086 462.888 122.935 458.399 122.935C455.356 122.935 451.426 120.015 451.333 117.685C451.305 116.998 450.735 111.171 450.066 104.736Z" fill="#013A63"/>
<path d="M512.461 100.957C513.577 93.5718 513.951 93.0147 518.54 91.9297C520.379 91.4947 523.619 91.0938 525.74 91.0368C528.869 90.9538 529.482 91.2338 528.99 92.5168C528.656 93.3868 528.383 94.9618 528.383 96.0168C528.383 97.5348 527.668 97.9348 524.954 97.9348C521.172 97.9348 521.396 97.3738 518.445 114.243C517.148 121.657 516.946 121.935 512.824 121.935C508.953 121.935 508.957 121.951 510.439 113.435C511.013 110.135 511.923 104.52 512.461 100.957Z" fill="#013A63"/>
<path d="M564.398 96.1848C564.42 93.7218 565.557 92.2477 567.883 91.6667C571.18 90.8427 584.789 90.9057 586.12 91.7507C588.367 93.1787 585.788 98.6167 579.204 106.335C575.728 110.411 572.208 113.961 571.383 114.224C570.558 114.488 572.669 114.755 576.074 114.819C579.479 114.883 582.52 115.347 582.831 115.851C583.143 116.355 582.955 117.93 582.415 119.351C581.445 121.901 581.296 121.935 571.024 121.935C561.597 121.935 560.569 121.754 560.113 120.012C559.471 117.555 561.767 114.045 569.321 105.935C572.651 102.36 575.378 99.0968 575.38 98.6848C575.381 98.2728 572.908 97.9348 569.883 97.9348C565.306 97.9348 564.386 97.6408 564.398 96.1848Z" fill="#013A63"/>
<path fill-rule="evenodd" clip-rule="evenodd" d="M180.636 93.1848C178.866 94.4228 177.41 95.9978 177.4 96.6848C177.391 97.3728 177.01 97.9348 176.555 97.9348C175.39 97.9348 173.383 107.207 173.383 112.588C173.383 116.267 173.937 117.643 176.417 120.123C179.315 123.021 179.763 123.139 186.383 122.765C192.407 122.425 193.717 121.989 196.373 119.445C199.919 116.047 202.383 108.764 202.383 101.677C202.383 97.5988 201.895 96.2928 199.46 93.8578C196.844 91.2418 195.871 90.9348 190.196 90.9348C185.24 90.9348 183.152 91.4268 180.636 93.1848ZM191.985 108.233C193.113 104.352 193.326 102.064 192.658 100.996C191.402 98.9888 187.018 98.4478 185.678 100.134C185.11 100.85 184.081 103.839 183.392 106.777C182.312 111.384 182.351 112.332 183.676 113.657C184.687 114.668 186.091 114.974 187.774 114.552C189.854 114.03 190.644 112.844 191.985 108.233Z" fill="#013A63"/>
<path fill-rule="evenodd" clip-rule="evenodd" d="M255.479 92.1998C251.886 94.0468 249.476 97.8498 247.776 104.36C244.643 116.361 248.694 122.941 259.21 122.928C268.576 122.918 272.773 119.01 275.041 108.189C276.679 100.378 275.594 94.9577 271.909 92.5437C268.949 90.6047 258.989 90.3958 255.479 92.1998ZM263.708 112.745C265.526 109.849 266.689 103.473 265.869 100.891C265.057 98.3327 261.229 98.3428 258.906 100.91C257.663 102.283 257.082 104.644 257.001 108.66C256.887 114.218 256.984 114.447 259.57 114.745C261.502 114.968 262.666 114.406 263.708 112.745Z" fill="#013A63"/>
<path fill-rule="evenodd" clip-rule="evenodd" d="M302.619 81.1848C302.063 81.8728 301.302 84.2968 300.927 86.5728L300.245 90.7108L293.784 91.1217C285.029 91.6797 281.982 94.6048 279.896 104.459C278.057 113.148 278.738 117.215 282.572 120.441C284.975 122.463 286.611 122.933 291.21 122.924C294.33 122.918 298.51 122.644 300.498 122.315C303.907 121.751 304.178 121.423 305.248 116.576C307.683 105.542 311.414 81.7938 310.855 80.8898C309.995 79.4988 303.801 79.7208 302.619 81.1848ZM292.467 114.935C295.994 114.935 297.127 112.674 298.056 103.79C298.664 97.9727 298.651 97.9348 296.025 97.9348C292.011 97.9348 289.641 101.025 288.859 107.277C288.039 113.84 288.555 114.935 292.467 114.935Z" fill="#013A63"/>
<path fill-rule="evenodd" clip-rule="evenodd" d="M319.565 92.9648C313.81 96.4738 309.639 110.31 312.357 116.873C314.254 121.452 317.381 122.937 325.098 122.921C335.075 122.901 336.383 122.368 336.383 118.318V114.935H328.99C323.154 114.935 321.468 114.6 320.987 113.345C319.886 110.477 321.387 109.935 330.423 109.935C339.161 109.935 339.358 109.882 339.987 107.375C340.341 105.968 340.394 102.721 340.105 100.16C339.374 93.6768 335.9 90.9448 328.383 90.9438C324.621 90.9428 321.835 91.5818 319.565 92.9648ZM331.383 102.135C331.383 101.145 330.843 99.7948 330.183 99.1348C328.338 97.2898 325.657 97.7057 323.981 100.098C321.936 103.018 322.763 103.935 327.442 103.935C330.57 103.935 331.383 103.564 331.383 102.135Z" fill="#013A63"/>
<path fill-rule="evenodd" clip-rule="evenodd" d="M407.383 92.6698C403.082 95.7058 401.561 98.2218 399.851 105.133C397.371 115.153 399.761 120.836 407.111 122.398C411.39 123.308 421.137 122.038 422.824 120.351C423.561 119.614 424.72 115.056 425.399 110.223C426.079 105.389 426.977 99.7598 427.396 97.7138C428.434 92.6418 426.962 91.6738 417.577 91.2518C411.443 90.9758 409.376 91.2628 407.383 92.6698ZM417.03 110.435C417.669 107.685 418.234 103.748 418.287 101.685C418.379 98.0978 418.242 97.9358 415.133 97.9498C413.345 97.9588 411.37 98.2958 410.744 98.6998C408.981 99.8368 407.188 106.993 407.554 111.435C407.878 115.379 407.939 115.435 411.876 115.435C415.846 115.435 415.876 115.406 417.03 110.435Z" fill="#013A63"/>
<path fill-rule="evenodd" clip-rule="evenodd" d="M486.883 92.3378C481.622 94.6598 479.418 98.6338 477.886 108.558C476.407 118.146 482.586 123.774 493.22 122.524C496.175 122.177 499.35 121.488 500.276 120.992C502.098 120.017 505.627 104.546 505.792 96.8058C505.872 93.0968 505.567 92.4698 503.383 91.8468C499.217 90.6588 490.069 90.9308 486.883 92.3378ZM496.054 108.435C496.717 104.585 497.288 100.648 497.322 99.6848C497.368 98.3588 496.596 97.9428 494.133 97.9668C489.223 98.0148 487.437 99.9898 486.176 106.771C484.784 114.258 485.884 116.19 491.28 115.736L494.848 115.435L496.054 108.435Z" fill="#013A63"/>
<path fill-rule="evenodd" clip-rule="evenodd" d="M537.698 93.4617C534.341 95.4737 533.105 97.0627 531.448 101.49C528.616 109.06 528.69 115.956 531.633 118.636C536.498 123.067 541.876 124.037 549.633 121.882C552.664 121.041 553.383 120.371 553.383 118.388C553.383 116.024 553.135 115.935 546.583 115.935C539.62 115.935 537.383 114.94 537.383 111.842C537.383 109.4 539.788 108.818 546.88 109.545C552.41 110.112 553.378 109.94 555.258 108.06C557.827 105.491 558.115 99.4237 555.822 96.1517C551.955 90.6297 544.314 89.4967 537.698 93.4617ZM543.773 104.753C548.417 105.135 549.858 103.963 548.991 100.508C548.457 98.3828 547.76 97.9348 544.986 97.9348C538.25 97.9348 537.134 104.208 543.773 104.753Z" fill="#013A63"/>
<path fill-rule="evenodd" clip-rule="evenodd" d="M55.7362 1.3849C39.9022 4.9049 30.7122 10.1009 18.4632 22.4579C0.604239 40.4749 -4.98676 70.4539 4.72324 96.1399C7.08724 102.396 14.4892 113.329 20.4212 119.327C25.1852 124.144 34.4952 130.975 38.1012 132.299C39.8142 132.928 40.5382 131.035 39.8832 126.662C39.8832 126.662 39.8832 122.458 34.5632 119.053C29.2433 115.648 20.4432 104.489 17.0762 97.4289C2.37424 66.5999 14.7042 29.9859 44.7362 15.2899C55.4522 10.0469 61.7842 8.5929 73.7362 8.6309C85.8622 8.6699 94.4202 10.8839 101.73 15.8729C108.834 20.7229 111.013 22.7949 117.799 31.1599C125.78 40.9969 127.043 42.8479 130.287 49.4579C131.906 52.7579 133.907 56.0059 134.734 56.6759C137.205 58.6799 140.46 58.1239 142.663 55.3229C147.631 49.0069 143.048 38.1969 129.774 24.9189C123.604 18.7479 117.672 14.6399 113.403 13.5809C111.845 13.1939 108.807 11.7649 106.653 10.4049C92.3582 1.3809 71.9892 -2.2271 55.7362 1.3849ZM104.736 25.9579C104.736 26.5079 105.186 26.9579 105.736 26.9579C106.286 26.9579 106.736 26.5079 106.736 25.9579C106.736 25.4079 106.286 24.9579 105.736 24.9579C105.186 24.9579 104.736 25.4079 104.736 25.9579ZM102.736 27.5289C102.736 28.8899 105.643 30.9169 106.231 29.9659C106.574 29.4109 107.39 28.9649 108.045 28.9729C108.842 28.9839 108.787 29.2729 107.879 29.8479C107.133 30.3209 106.913 30.9489 107.39 31.2439C107.868 31.5389 109.046 31.2049 110.008 30.5009C111.602 29.3359 111.616 29.1029 110.166 27.8999C108.911 26.8579 108.167 26.8319 106.655 27.7769C105.49 28.5039 104.736 28.5779 104.736 27.9659C104.736 27.4119 104.286 26.9579 103.736 26.9579C103.186 26.9579 102.736 27.2149 102.736 27.5289ZM110.736 31.8939L108.236 34.0639L110.736 33.4629C112.896 32.9439 112.991 33.0159 111.431 33.9909C108.609 35.7549 111.198 38.1989 115.145 37.4979C117.838 37.0189 117.942 37.0749 115.95 37.9339C113.739 38.8879 113.72 39.0039 115.36 41.5069C116.653 43.4809 117.611 43.9549 119.396 43.5069C120.703 43.1789 121.736 43.3699 121.736 43.9389C121.736 44.4989 121.088 44.9579 120.295 44.9579C119.502 44.9579 118.565 45.4259 118.211 45.9979C117.79 46.6789 118.547 46.8069 120.402 46.3689C123.522 45.6319 125.935 43.9579 123.877 43.9579C123.185 43.9579 122.896 43.5079 123.236 42.9579C123.576 42.4079 122.872 41.9579 121.673 41.9579C119.847 41.9579 119.694 41.7129 120.736 40.4579C122.203 38.6899 121.816 38.6189 118.051 39.9629C115.261 40.9599 115.255 40.9529 117.33 39.1789C119.164 37.6119 119.241 37.2189 117.951 36.0139C116.799 34.9379 116.07 34.8929 114.607 35.8069C113.578 36.4489 112.736 36.5899 112.736 36.1189C112.736 35.6489 113.748 34.7749 114.986 34.1779C116.673 33.3649 116.816 33.0759 115.559 33.0259C114.637 32.9879 113.737 32.2309 113.559 31.3419C113.282 29.9529 112.883 30.0319 110.736 31.8939ZM118.236 41.9579C118.576 42.5079 118.377 42.9579 117.795 42.9579C117.213 42.9579 116.736 42.5079 116.736 41.9579C116.736 41.4079 116.934 40.9579 117.177 40.9579C117.42 40.9579 117.896 41.4079 118.236 41.9579ZM123.925 46.6719C120.932 47.2429 120.181 49.3279 122.023 51.9569C123.233 53.6839 123.589 53.7839 124.07 52.5299C124.394 51.6849 123.95 50.6169 123.069 50.1239C121.767 49.3959 121.953 49.1199 124.11 48.5789C125.554 48.2159 126.736 47.4779 126.736 46.9389C126.736 46.3989 126.623 46.0189 126.486 46.0939C126.349 46.1689 125.196 46.4289 123.925 46.6719ZM124.736 50.1709C124.736 51.2769 127.496 51.1549 128.199 50.0189C128.518 49.5019 127.87 49.1479 126.758 49.2309C125.646 49.3149 124.736 49.7379 124.736 50.1709ZM126.005 52.6509C126.978 52.9049 128.328 52.8879 129.005 52.6139C129.682 52.3399 128.886 52.1329 127.236 52.1529C125.586 52.1729 125.032 52.3969 126.005 52.6509ZM124.736 54.9579C124.736 55.5079 125.834 55.9579 127.177 55.9579C128.52 55.9579 129.896 55.5079 130.236 54.9579C130.597 54.3749 129.58 53.9579 127.795 53.9579C126.113 53.9579 124.736 54.4079 124.736 54.9579ZM126.365 57.7489C126.096 58.1839 127.42 58.3599 129.306 58.1399C131.193 57.9189 132.736 57.5629 132.736 57.3489C132.736 56.5959 126.849 56.9659 126.365 57.7489Z" fill="#013A63"/>
<path d="M46.3832 133.958C46.3832 133.958 46.3832 133.958 46.3832 135.458L49.3832 137.03H53.8422C57.2412 138.87 77.3562 139.489 85.0042 137.989C91.6442 136.687 106.075 130.286 110.542 126.662C115.613 122.547 125.736 112.092 125.736 110.969C125.736 110.353 123.674 111.785 121.154 114.153C103.333 130.898 79.7442 136.369 56.2472 129.208C56.2472 129.208 50.8832 126.662 49.3832 124.958C47.8832 123.254 44.8832 122.958 44.8832 126.662C44.8832 130.366 46.3832 133.958 46.3832 133.958Z" fill="#013A63"/>
<path d="M98.0104 91.9607C98.0254 90.4107 109.84 83.4297 115.745 81.4817C126.771 77.8447 137.766 80.8827 142.379 88.8417C150.791 103.353 147.339 139.03 135.077 164.299C129.952 174.862 124.887 181.322 117.977 186.11C112.759 189.727 111.991 188.805 116.422 184.243C123.789 176.657 132.085 154.029 135.513 132.168C137.802 117.567 137.321 97.4757 134.573 92.9177C130.486 86.1417 120.446 84.8857 107.501 89.5327C98.4604 92.7787 98.0004 92.8957 98.0104 91.9607Z" fill="#2A6F97"/>
<path d="M42.9934 119.668C40.9864 101.172 43.8734 90.7837 52.5014 85.4547C56.1174 83.2207 62.4714 83.0567 67.2974 85.0727C69.2444 85.8867 75.9364 89.8517 82.1694 93.8837C88.4024 97.9167 95.7514 102.187 98.5014 103.373C101.251 104.559 102.962 105.543 102.303 105.561C99.7184 105.632 85.2834 100.462 81.5014 98.1117C73.1264 92.9077 66.4304 90.1947 61.0014 89.8087L55.5014 89.4177L52.8094 93.6157C49.5254 98.7377 44.2652 110.636 54.3994 143.539C55.0484 148.429 58.1064 158.23 61.7484 167.094C62.6524 169.294 65.3194 174.131 67.6764 177.844C72.3814 185.257 72.4124 186.315 67.7764 181.353C55.6484 168.37 45.5514 143.237 42.9934 119.668Z" fill="#2A6F97"/>
<path d="M85.1294 174.332C86.2164 162.552 87.4994 158.236 91.1474 154.081C97.9184 146.368 107.402 152.445 109.401 165.778C110.193 171.055 109.116 185.783 107.99 185.087C107.584 184.836 106.689 180.91 106.003 176.362C104.685 167.639 101.796 159.498 99.2734 157.405C98.0194 156.364 97.3864 156.627 95.5254 158.961C93.5654 161.419 90.0014 172.898 90.0014 176.752C90.0014 179.97 83.4864 189.412 82.1724 188.098C81.9894 187.915 82.3964 186.724 83.0784 185.45C83.7594 184.177 84.6824 179.174 85.1294 174.332Z" fill="#2A6F97"/>
</svg>
